<mxfile host="65bd71144e">
    <diagram id="C5RBs43oDa-KdzZeNtuy" name="Page-1">
        <mxGraphModel dx="1916" dy="304" grid="1" gridSize="10" guides="1" tooltips="1" connect="1" arrows="1" fold="1" page="1" pageScale="1" pageWidth="827" pageHeight="1169" math="0" shadow="0">
            <root>
                <mxCell id="WIyWlLk6GJQsqaUBKTNV-0"/>
                <mxCell id="WIyWlLk6GJQsqaUBKTNV-1" parent="WIyWlLk6GJQsqaUBKTNV-0"/>
                <mxCell id="ft2vWSQbbDp8k2CjRcFA-8" value="" style="shape=folder;fontStyle=1;spacingTop=10;tabWidth=253;tabHeight=20;tabPosition=left;html=1;whiteSpace=wrap;" parent="WIyWlLk6GJQsqaUBKTNV-1" vertex="1">
                    <mxGeometry x="-850" y="160" width="2740" height="2090" as="geometry"/>
                </mxCell>
                <mxCell id="ft2vWSQbbDp8k2CjRcFA-9" value="model" style="text;html=1;align=center;verticalAlign=middle;whiteSpace=wrap;rounded=0;" parent="WIyWlLk6GJQsqaUBKTNV-1" vertex="1">
                    <mxGeometry x="-843.1315483119907" y="164" width="61.81606519208382" height="11.19" as="geometry"/>
                </mxCell>
                <mxCell id="ft2vWSQbbDp8k2CjRcFA-13" value="" style="group" parent="WIyWlLk6GJQsqaUBKTNV-1" vertex="1" connectable="0">
                    <mxGeometry x="-810.0019808932499" y="220.00238389060286" width="5456.345242769527" height="2402.2346368715084" as="geometry"/>
                </mxCell>
                <mxCell id="ft2vWSQbbDp8k2CjRcFA-11" value="" style="shape=folder;fontStyle=1;spacingTop=10;tabWidth=240;tabHeight=24;tabPosition=left;html=1;whiteSpace=wrap;" parent="ft2vWSQbbDp8k2CjRcFA-13" vertex="1">
                    <mxGeometry y="-10" width="2650" height="2010" as="geometry"/>
                </mxCell>
                <mxCell id="ft2vWSQbbDp8k2CjRcFA-14" value="+ Sport" style="swimlane;fontStyle=1;align=center;verticalAlign=top;childLayout=stackLayout;horizontal=1;startSize=26;horizontalStack=0;resizeParent=1;resizeParentMax=0;resizeLast=0;collapsible=1;marginBottom=0;whiteSpace=wrap;html=1;" parent="ft2vWSQbbDp8k2CjRcFA-13" vertex="1">
                    <mxGeometry x="2103.441983110668" y="1371.8705745017924" width="225.68" height="189.99537313432836" as="geometry">
                        <mxRectangle x="4737.2188888888895" y="1374.1305745017926" width="313.8888888888889" height="55.970149253731336" as="alternateBounds"/>
                    </mxGeometry>
                </mxCell>
                <mxCell id="ft2vWSQbbDp8k2CjRcFA-15" value="- code: String&lt;div&gt;- nom: String&lt;/div&gt;" style="text;strokeColor=none;fillColor=none;align=left;verticalAlign=top;spacingLeft=4;spacingRight=4;overflow=hidden;rotatable=0;points=[[0,0.5],[1,0.5]];portConstraint=eastwest;whiteSpace=wrap;html=1;" parent="ft2vWSQbbDp8k2CjRcFA-14" vertex="1">
                    <mxGeometry y="26" width="225.68" height="34" as="geometry"/>
                </mxCell>
                <mxCell id="ft2vWSQbbDp8k2CjRcFA-16" value="" style="line;strokeWidth=1;fillColor=none;align=left;verticalAlign=middle;spacingTop=-1;spacingLeft=3;spacingRight=3;rotatable=0;labelPosition=right;points=[];portConstraint=eastwest;strokeColor=inherit;" parent="ft2vWSQbbDp8k2CjRcFA-14" vertex="1">
                    <mxGeometry y="60" width="225.68" height="14.925373134328357" as="geometry"/>
                </mxCell>
                <mxCell id="ft2vWSQbbDp8k2CjRcFA-17" value="&lt;div&gt;+ Sport(unCode: String, unNom: String)&lt;/div&gt;+ getCode(): String&lt;div&gt;+ setCode(unCode: String): void&lt;/div&gt;&lt;div&gt;+ getNom(): String&lt;div&gt;+ setNom(unNom: String): void&lt;/div&gt;&lt;/div&gt;&lt;div&gt;+ toString(): String&lt;/div&gt;&lt;div&gt;+ estCeSport(nom: String): boolean&lt;/div&gt;" style="text;strokeColor=none;fillColor=none;align=left;verticalAlign=top;spacingLeft=4;spacingRight=4;overflow=hidden;rotatable=0;points=[[0,0.5],[1,0.5]];portConstraint=eastwest;whiteSpace=wrap;html=1;" parent="ft2vWSQbbDp8k2CjRcFA-14" vertex="1">
                    <mxGeometry y="74.92537313432835" width="225.68" height="115.07" as="geometry"/>
                </mxCell>
                <mxCell id="Akj_Q5KGUya6kEIMWcKO-7" style="rounded=0;orthogonalLoop=1;jettySize=auto;html=1;" parent="ft2vWSQbbDp8k2CjRcFA-13" source="WQMvDcrjrdcJwykN7Dnw-6" target="WQMvDcrjrdcJwykN7Dnw-14" edge="1">
                    <mxGeometry relative="1" as="geometry"/>
                </mxCell>
                <mxCell id="WQMvDcrjrdcJwykN7Dnw-6" value="+ Besoin" style="swimlane;fontStyle=1;align=center;verticalAlign=top;childLayout=stackLayout;horizontal=1;startSize=26;horizontalStack=0;resizeParent=1;resizeParentMax=0;resizeLast=0;collapsible=1;marginBottom=0;whiteSpace=wrap;html=1;" parent="ft2vWSQbbDp8k2CjRcFA-13" vertex="1">
                    <mxGeometry x="1641.7200000000003" y="840" width="390" height="309.99537313432836" as="geometry">
                        <mxRectangle x="3637.2222222222217" y="804.131343283582" width="282.5" height="55.970149253731336" as="alternateBounds"/>
                    </mxGeometry>
                </mxCell>
                <mxCell id="WQMvDcrjrdcJwykN7Dnw-7" value="- nombre: int&lt;div&gt;&lt;span style=&quot;background-color: transparent;&quot;&gt;- intituleCompetence: String&lt;/span&gt;&lt;/div&gt;&lt;div&gt;&lt;span style=&quot;background-color: transparent;&quot;&gt;- idDPS: long&lt;/span&gt;&lt;/div&gt;" style="text;strokeColor=none;fillColor=none;align=left;verticalAlign=top;spacingLeft=4;spacingRight=4;overflow=hidden;rotatable=0;points=[[0,0.5],[1,0.5]];portConstraint=eastwest;whiteSpace=wrap;html=1;" parent="WQMvDcrjrdcJwykN7Dnw-6" vertex="1">
                    <mxGeometry y="26" width="390" height="54" as="geometry"/>
                </mxCell>
                <mxCell id="WQMvDcrjrdcJwykN7Dnw-8" value="" style="line;strokeWidth=1;fillColor=none;align=left;verticalAlign=middle;spacingTop=-1;spacingLeft=3;spacingRight=3;rotatable=0;labelPosition=right;points=[];portConstraint=eastwest;strokeColor=inherit;" parent="WQMvDcrjrdcJwykN7Dnw-6" vertex="1">
                    <mxGeometry y="80" width="390" height="14.925373134328357" as="geometry"/>
                </mxCell>
                <mxCell id="WQMvDcrjrdcJwykN7Dnw-9" value="&lt;div&gt;+ Besoin(unNombre: int, uneCompetence: Competence, unDPS: DPS)&lt;/div&gt;&lt;div&gt;+ Besoin(unNombre: int, unIntituleCompetence: String, unIdDPS: long)&lt;/div&gt;+ getNombre(): int&lt;div&gt;+ setNombre(unNombre: int): void&lt;/div&gt;&lt;div&gt;+ getLaCompetence(): Competence&lt;/div&gt;&lt;div&gt;+ setLaCompetence(uneCompetence: Competence): void&lt;/div&gt;&lt;div&gt;+ getIntituleCompetence(): String&lt;/div&gt;&lt;div&gt;+ setIntituleCompetence(&lt;span style=&quot;background-color: transparent; color: light-dark(rgb(0, 0, 0), rgb(255, 255, 255));&quot;&gt;unIntituleCompetence: String&lt;/span&gt;&lt;span style=&quot;background-color: transparent; color: light-dark(rgb(0, 0, 0), rgb(255, 255, 255));&quot;&gt;): void&lt;/span&gt;&lt;/div&gt;&lt;div&gt;+ getLeDPS(): DPS&lt;/div&gt;&lt;div&gt;+ setLeDPS(unDPS: DPS): void&amp;nbsp;&lt;/div&gt;&lt;div&gt;+ getIdDPS(): long&lt;/div&gt;&lt;div&gt;+ setIdDPS(unIdDPS: long): void&lt;/div&gt;&lt;div&gt;+ toString(): String&lt;/div&gt;&lt;div&gt;+ concerneCompetence(intitule: String): boolean&lt;/div&gt;" style="text;strokeColor=none;fillColor=none;align=left;verticalAlign=top;spacingLeft=4;spacingRight=4;overflow=hidden;rotatable=0;points=[[0,0.5],[1,0.5]];portConstraint=eastwest;whiteSpace=wrap;html=1;" parent="WQMvDcrjrdcJwykN7Dnw-6" vertex="1">
                    <mxGeometry y="94.92537313432835" width="390" height="215.07" as="geometry"/>
                </mxCell>
                <mxCell id="ft2vWSQbbDp8k2CjRcFA-18" value="+ Site" style="swimlane;fontStyle=1;align=center;verticalAlign=top;childLayout=stackLayout;horizontal=1;startSize=26;horizontalStack=0;resizeParent=1;resizeParentMax=0;resizeLast=0;collapsible=1;marginBottom=0;whiteSpace=wrap;html=1;" parent="ft2vWSQbbDp8k2CjRcFA-13" vertex="1">
                    <mxGeometry x="1412.4259267882549" y="1721.866422913366" width="421.92" height="269.99537313432836" as="geometry">
                        <mxRectangle x="940" y="1399.9922388059701" width="100" height="40.07462686567164" as="alternateBounds"/>
                    </mxGeometry>
                </mxCell>
                <mxCell id="ft2vWSQbbDp8k2CjRcFA-19" value="- code: String&lt;div&gt;- nom: String&lt;/div&gt;&lt;div&gt;- longitude: float&lt;/div&gt;&lt;div&gt;- latitude: float&lt;/div&gt;" style="text;strokeColor=none;fillColor=none;align=left;verticalAlign=top;spacingLeft=4;spacingRight=4;overflow=hidden;rotatable=0;points=[[0,0.5],[1,0.5]];portConstraint=eastwest;whiteSpace=wrap;html=1;" parent="ft2vWSQbbDp8k2CjRcFA-18" vertex="1">
                    <mxGeometry y="26" width="421.92" height="64" as="geometry"/>
                </mxCell>
                <mxCell id="ft2vWSQbbDp8k2CjRcFA-20" value="" style="line;strokeWidth=1;fillColor=none;align=left;verticalAlign=middle;spacingTop=-1;spacingLeft=3;spacingRight=3;rotatable=0;labelPosition=right;points=[];portConstraint=eastwest;strokeColor=inherit;" parent="ft2vWSQbbDp8k2CjRcFA-18" vertex="1">
                    <mxGeometry y="90" width="421.92" height="14.925373134328357" as="geometry"/>
                </mxCell>
                <mxCell id="ft2vWSQbbDp8k2CjRcFA-21" value="&lt;div&gt;+ Site(unCode: String, unNom: String, uneLongitude: float, uneLatitude: float)&lt;/div&gt;+ getCode(): String&lt;div&gt;+ setCode(unCode: String): void&lt;/div&gt;&lt;div&gt;+ getNom(): String&lt;div&gt;+ setNom(unNom: String): void&lt;/div&gt;&lt;div&gt;+ getLongitude(): float&lt;div&gt;+ setLongitude(uneLongitude: float): void&lt;/div&gt;&lt;div&gt;+ getLatitude(): float&lt;div&gt;+ setLatitude(uneLatitude: float): void&lt;/div&gt;&lt;/div&gt;&lt;/div&gt;&lt;/div&gt;&lt;div&gt;+ toString(): String&lt;/div&gt;&lt;div&gt;+ estALaCoordonnee(longitude: float, latitude: float): boolean&lt;/div&gt;" style="text;strokeColor=none;fillColor=none;align=left;verticalAlign=top;spacingLeft=4;spacingRight=4;overflow=hidden;rotatable=0;points=[[0,0.5],[1,0.5]];portConstraint=eastwest;whiteSpace=wrap;html=1;" parent="ft2vWSQbbDp8k2CjRcFA-18" vertex="1">
                    <mxGeometry y="104.92537313432835" width="421.92" height="165.07" as="geometry"/>
                </mxCell>
                <mxCell id="WQMvDcrjrdcJwykN7Dnw-10" value="+ Competence" style="swimlane;fontStyle=1;align=center;verticalAlign=top;childLayout=stackLayout;horizontal=1;startSize=26;horizontalStack=0;resizeParent=1;resizeParentMax=0;resizeLast=0;collapsible=1;marginBottom=0;whiteSpace=wrap;html=1;" parent="ft2vWSQbbDp8k2CjRcFA-13" vertex="1">
                    <mxGeometry x="1732.2325494761342" y="416.9400016676394" width="240" height="129.99537313432836" as="geometry">
                        <mxRectangle x="2236" y="265.3600016676395" width="191.11111111111111" height="55.970149253731336" as="alternateBounds"/>
                    </mxGeometry>
                </mxCell>
                <mxCell id="WQMvDcrjrdcJwykN7Dnw-11" value="- intitule: String" style="text;strokeColor=none;fillColor=none;align=left;verticalAlign=top;spacingLeft=4;spacingRight=4;overflow=hidden;rotatable=0;points=[[0,0.5],[1,0.5]];portConstraint=eastwest;whiteSpace=wrap;html=1;" parent="WQMvDcrjrdcJwykN7Dnw-10" vertex="1">
                    <mxGeometry y="26" width="240" height="24" as="geometry"/>
                </mxCell>
                <mxCell id="WQMvDcrjrdcJwykN7Dnw-12" value="" style="line;strokeWidth=1;fillColor=none;align=left;verticalAlign=middle;spacingTop=-1;spacingLeft=3;spacingRight=3;rotatable=0;labelPosition=right;points=[];portConstraint=eastwest;strokeColor=inherit;" parent="WQMvDcrjrdcJwykN7Dnw-10" vertex="1">
                    <mxGeometry y="50" width="240" height="14.925373134328357" as="geometry"/>
                </mxCell>
                <mxCell id="WQMvDcrjrdcJwykN7Dnw-13" value="&lt;div&gt;&lt;div&gt;+ getIntitule(): String&lt;/div&gt;&lt;/div&gt;&lt;div&gt;+ setIntitule(unIntitule: String): void&lt;/div&gt;&lt;div&gt;+ toString(): String&lt;/div&gt;&lt;div&gt;+ equalsIntitule(intitule: String): boolean&lt;/div&gt;" style="text;strokeColor=none;fillColor=none;align=left;verticalAlign=top;spacingLeft=4;spacingRight=4;overflow=hidden;rotatable=0;points=[[0,0.5],[1,0.5]];portConstraint=eastwest;whiteSpace=wrap;html=1;" parent="WQMvDcrjrdcJwykN7Dnw-10" vertex="1">
                    <mxGeometry y="64.92537313432835" width="240" height="65.07" as="geometry"/>
                </mxCell>
                <mxCell id="ft2vWSQbbDp8k2CjRcFA-22" value="+ Secouriste" style="swimlane;fontStyle=1;align=center;verticalAlign=top;childLayout=stackLayout;horizontal=1;startSize=26;horizontalStack=0;resizeParent=1;resizeParentMax=0;resizeLast=0;collapsible=1;marginBottom=0;whiteSpace=wrap;html=1;" parent="ft2vWSQbbDp8k2CjRcFA-13" vertex="1">
                    <mxGeometry x="65.00181950734645" y="310" width="790" height="469.99537313432836" as="geometry">
                        <mxRectangle x="50" y="60" width="100" height="30" as="alternateBounds"/>
                    </mxGeometry>
                </mxCell>
                <mxCell id="ft2vWSQbbDp8k2CjRcFA-23" value="- id: long&lt;div&gt;- nom: String&lt;/div&gt;&lt;div&gt;- prenom: String&lt;/div&gt;&lt;div&gt;- dateNaissance: String&lt;/div&gt;&lt;div&gt;- email: String&lt;/div&gt;&lt;div&gt;- tel: String&lt;/div&gt;&lt;div&gt;- adresse: String&lt;/div&gt;&lt;div&gt;- possessions: List&amp;lt;Possede&amp;gt;&lt;/div&gt;" style="text;strokeColor=none;fillColor=none;align=left;verticalAlign=top;spacingLeft=4;spacingRight=4;overflow=hidden;rotatable=0;points=[[0,0.5],[1,0.5]];portConstraint=eastwest;whiteSpace=wrap;html=1;" parent="ft2vWSQbbDp8k2CjRcFA-22" vertex="1">
                    <mxGeometry y="26" width="790" height="124" as="geometry"/>
                </mxCell>
                <mxCell id="ft2vWSQbbDp8k2CjRcFA-24" value="" style="line;strokeWidth=1;fillColor=none;align=left;verticalAlign=middle;spacingTop=-1;spacingLeft=3;spacingRight=3;rotatable=0;labelPosition=right;points=[];portConstraint=eastwest;strokeColor=inherit;" parent="ft2vWSQbbDp8k2CjRcFA-22" vertex="1">
                    <mxGeometry y="150" width="790" height="14.925373134328357" as="geometry"/>
                </mxCell>
                <mxCell id="ft2vWSQbbDp8k2CjRcFA-25" value="&lt;div&gt;+ Secouriste()&lt;/div&gt;&lt;div&gt;+ Secouriste(id: long, nom: String, prenom: String, dateNaissance: String, email: String, tel:String, adresse: String, possessions: List&amp;lt;Possede&amp;gt;)&lt;/div&gt;+ getId(): long&lt;div&gt;+ setId(unId: long): void&lt;/div&gt;&lt;div&gt;+ getNom(): String&lt;div&gt;+ setNom(unNom: String): void&lt;/div&gt;&lt;/div&gt;&lt;div&gt;+ getPrenom(): String&lt;div&gt;+ setPrenom(unPrenom: String): void&lt;/div&gt;&lt;/div&gt;&lt;div&gt;+ getDateNaissance(): String&lt;div&gt;+ setDateNaissance(uneDateNaissance: String): void&lt;/div&gt;&lt;/div&gt;&lt;div&gt;+ getEmail(): String&lt;div&gt;+ setEmail(unEmail: String): void&lt;/div&gt;&lt;/div&gt;&lt;div&gt;+ getTel(): String&lt;div&gt;+ setTel(unTel: String): void&lt;/div&gt;&lt;/div&gt;&lt;div&gt;+ getAdresse(): String&lt;div&gt;+ setAdresse(uneAdresse: String): void&lt;/div&gt;&lt;/div&gt;&lt;div&gt;+ getPossessions(): List&amp;lt;Possede&amp;gt;&lt;/div&gt;&lt;div&gt;+ setPossessions(possessions: List&amp;lt;Possede&amp;gt;): void&lt;/div&gt;&lt;div&gt;+ toString(): String&lt;/div&gt;&lt;div&gt;+ aLaCompetence(intitule: String): boolean&lt;/div&gt;" style="text;strokeColor=none;fillColor=none;align=left;verticalAlign=top;spacingLeft=4;spacingRight=4;overflow=hidden;rotatable=0;points=[[0,0.5],[1,0.5]];portConstraint=eastwest;whiteSpace=wrap;html=1;" parent="ft2vWSQbbDp8k2CjRcFA-22" vertex="1">
                    <mxGeometry y="164.92537313432837" width="790" height="305.07" as="geometry"/>
                </mxCell>
                <mxCell id="Akj_Q5KGUya6kEIMWcKO-8" style="rounded=0;orthogonalLoop=1;jettySize=auto;html=1;entryX=0.5;entryY=0;entryDx=0;entryDy=0;" parent="ft2vWSQbbDp8k2CjRcFA-13" source="WQMvDcrjrdcJwykN7Dnw-14" target="ft2vWSQbbDp8k2CjRcFA-18" edge="1">
                    <mxGeometry relative="1" as="geometry"/>
                </mxCell>
                <mxCell id="Akj_Q5KGUya6kEIMWcKO-10" style="rounded=0;orthogonalLoop=1;jettySize=auto;html=1;entryX=1;entryY=0.5;entryDx=0;entryDy=0;" parent="ft2vWSQbbDp8k2CjRcFA-13" source="WQMvDcrjrdcJwykN7Dnw-14" target="ft2vWSQbbDp8k2CjRcFA-35" edge="1">
                    <mxGeometry relative="1" as="geometry"/>
                </mxCell>
                <mxCell id="WQMvDcrjrdcJwykN7Dnw-14" value="+ DPS" style="swimlane;fontStyle=1;align=center;verticalAlign=top;childLayout=stackLayout;horizontal=1;startSize=26;horizontalStack=0;resizeParent=1;resizeParentMax=0;resizeLast=0;collapsible=1;marginBottom=0;whiteSpace=wrap;html=1;" parent="ft2vWSQbbDp8k2CjRcFA-13" vertex="1">
                    <mxGeometry x="1326.9244176506447" y="1291.869720670391" width="600" height="319.99537313432836" as="geometry">
                        <mxRectangle x="990" y="1109.9964179104477" width="100" height="40.07462686567164" as="alternateBounds"/>
                    </mxGeometry>
                </mxCell>
                <mxCell id="WQMvDcrjrdcJwykN7Dnw-15" value="&lt;div&gt;- id: long&lt;/div&gt;&lt;div&gt;- horaireDepart: int&lt;/div&gt;&lt;div&gt;- horaireFin: int&lt;/div&gt;" style="text;strokeColor=none;fillColor=none;align=left;verticalAlign=top;spacingLeft=4;spacingRight=4;overflow=hidden;rotatable=0;points=[[0,0.5],[1,0.5]];portConstraint=eastwest;whiteSpace=wrap;html=1;" parent="WQMvDcrjrdcJwykN7Dnw-14" vertex="1">
                    <mxGeometry y="26" width="600" height="54" as="geometry"/>
                </mxCell>
                <mxCell id="WQMvDcrjrdcJwykN7Dnw-16" value="" style="line;strokeWidth=1;fillColor=none;align=left;verticalAlign=middle;spacingTop=-1;spacingLeft=3;spacingRight=3;rotatable=0;labelPosition=right;points=[];portConstraint=eastwest;strokeColor=inherit;" parent="WQMvDcrjrdcJwykN7Dnw-14" vertex="1">
                    <mxGeometry y="80" width="600" height="14.925373134328357" as="geometry"/>
                </mxCell>
                <mxCell id="WQMvDcrjrdcJwykN7Dnw-17" value="&lt;div&gt;&lt;div&gt;+ DPS(unId: long, unHoraireDebut: int, unHoraireFin: int, uneJournee: Journee, unSite: Site, unSport: Sport)&lt;/div&gt;&lt;div&gt;+ getId(): long&lt;/div&gt;&lt;/div&gt;&lt;div&gt;+ setId(unId: long): void&lt;/div&gt;&lt;div&gt;+ getHorraireDepart(): int&lt;/div&gt;&lt;div&gt;+ setHorraireDepart(unHorraireDepart: int): void&lt;/div&gt;&lt;div&gt;+ getHorraireFin(): int&lt;/div&gt;&lt;div&gt;+ setHorraireFin(unHorraireFin: int): void&lt;/div&gt;&lt;div&gt;+ getEstProgramme(): Journee&lt;/div&gt;&lt;div&gt;+ setEstProgramme(uneJournee: Journee): void&lt;/div&gt;&lt;div&gt;+ getALieuDans(): Site&lt;/div&gt;&lt;div&gt;+ setALieuDans(unSite: Site): void&lt;/div&gt;&lt;div&gt;+ getConcerne(): Sport&lt;/div&gt;&lt;div&gt;+ setConcerne(unSport: Sport): void&lt;/div&gt;&lt;div&gt;+ toString(): String&lt;/div&gt;&lt;div&gt;+ estDansIntervalleHoraire(heure: int): boolean&lt;/div&gt;" style="text;strokeColor=none;fillColor=none;align=left;verticalAlign=top;spacingLeft=4;spacingRight=4;overflow=hidden;rotatable=0;points=[[0,0.5],[1,0.5]];portConstraint=eastwest;whiteSpace=wrap;html=1;" parent="WQMvDcrjrdcJwykN7Dnw-14" vertex="1">
                    <mxGeometry y="94.92537313432835" width="600" height="225.07" as="geometry"/>
                </mxCell>
                <mxCell id="ft2vWSQbbDp8k2CjRcFA-26" value="+ Possede" style="swimlane;fontStyle=1;align=center;verticalAlign=top;childLayout=stackLayout;horizontal=1;startSize=26;horizontalStack=0;resizeParent=1;resizeParentMax=0;resizeLast=0;collapsible=1;marginBottom=0;whiteSpace=wrap;html=1;" parent="ft2vWSQbbDp8k2CjRcFA-13" vertex="1">
                    <mxGeometry x="988.4052196167556" y="409.94701492537314" width="333.61" height="229.99537313432836" as="geometry">
                        <mxRectangle x="1381.1111111111109" y="130.59701492537314" width="313.8888888888889" height="55.970149253731336" as="alternateBounds"/>
                    </mxGeometry>
                </mxCell>
                <mxCell id="ft2vWSQbbDp8k2CjRcFA-27" value="&lt;div&gt;- idSecoursite: long&lt;/div&gt;&lt;div&gt;&lt;span style=&quot;background-color: transparent;&quot;&gt;- intituleCompetence: String&lt;/span&gt;&lt;/div&gt;" style="text;strokeColor=none;fillColor=none;align=left;verticalAlign=top;spacingLeft=4;spacingRight=4;overflow=hidden;rotatable=0;points=[[0,0.5],[1,0.5]];portConstraint=eastwest;whiteSpace=wrap;html=1;" parent="ft2vWSQbbDp8k2CjRcFA-26" vertex="1">
                    <mxGeometry y="26" width="333.61" height="34" as="geometry"/>
                </mxCell>
                <mxCell id="ft2vWSQbbDp8k2CjRcFA-28" value="" style="line;strokeWidth=1;fillColor=none;align=left;verticalAlign=middle;spacingTop=-1;spacingLeft=3;spacingRight=3;rotatable=0;labelPosition=right;points=[];portConstraint=eastwest;strokeColor=inherit;" parent="ft2vWSQbbDp8k2CjRcFA-26" vertex="1">
                    <mxGeometry y="60" width="333.61" height="14.925373134328357" as="geometry"/>
                </mxCell>
                <mxCell id="ft2vWSQbbDp8k2CjRcFA-29" value="+ getSecouriste(): Secouriste&lt;div&gt;+ setSecouriste(unSecouriste: Secouriste): void&lt;/div&gt;&lt;div&gt;+ getIdSecoursite(): long&lt;/div&gt;&lt;div&gt;+ setIdSecouriste(unIdSecouriste: long): void&lt;/div&gt;&lt;div&gt;+ getLaCompetence(): Competence&lt;/div&gt;&lt;div&gt;+ setLaCompetence(uneCompetence: Competence): void&lt;/div&gt;&lt;div&gt;+ getIntituleCompetence(): String&lt;/div&gt;&lt;div&gt;+ setIntituleCompetence(unIntituleCompetence: String): void&lt;/div&gt;&lt;div&gt;+ toString(): String&lt;/div&gt;&lt;div&gt;+ possedeCompetence(intitule: String): boolean&lt;/div&gt;" style="text;strokeColor=none;fillColor=none;align=left;verticalAlign=top;spacingLeft=4;spacingRight=4;overflow=hidden;rotatable=0;points=[[0,0.5],[1,0.5]];portConstraint=eastwest;whiteSpace=wrap;html=1;" parent="ft2vWSQbbDp8k2CjRcFA-26" vertex="1">
                    <mxGeometry y="74.92537313432835" width="333.61" height="155.07" as="geometry"/>
                </mxCell>
                <mxCell id="ft2vWSQbbDp8k2CjRcFA-30" value="+ Necessite" style="swimlane;fontStyle=1;align=center;verticalAlign=top;childLayout=stackLayout;horizontal=1;startSize=26;horizontalStack=0;resizeParent=1;resizeParentMax=0;resizeLast=0;collapsible=1;marginBottom=0;whiteSpace=wrap;html=1;" parent="ft2vWSQbbDp8k2CjRcFA-13" vertex="1">
                    <mxGeometry x="1658.0039392234123" y="90.00029850746267" width="392.48" height="229.99537313432836" as="geometry">
                        <mxRectangle x="2861.7766666666666" y="94.13029850746267" width="191.11111111111111" height="55.970149253731336" as="alternateBounds"/>
                    </mxGeometry>
                </mxCell>
                <mxCell id="ft2vWSQbbDp8k2CjRcFA-31" value="&lt;div&gt;&lt;span style=&quot;background-color: transparent;&quot;&gt;- intituleCompetence: String&lt;/span&gt;&lt;/div&gt;&lt;div&gt;&lt;span style=&quot;background-color: transparent;&quot;&gt;- intituleCompetenceNecessaire: String&lt;/span&gt;&lt;/div&gt;" style="text;strokeColor=none;fillColor=none;align=left;verticalAlign=top;spacingLeft=4;spacingRight=4;overflow=hidden;rotatable=0;points=[[0,0.5],[1,0.5]];portConstraint=eastwest;whiteSpace=wrap;html=1;" parent="ft2vWSQbbDp8k2CjRcFA-30" vertex="1">
                    <mxGeometry y="26" width="392.48" height="34" as="geometry"/>
                </mxCell>
                <mxCell id="ft2vWSQbbDp8k2CjRcFA-32" value="" style="line;strokeWidth=1;fillColor=none;align=left;verticalAlign=middle;spacingTop=-1;spacingLeft=3;spacingRight=3;rotatable=0;labelPosition=right;points=[];portConstraint=eastwest;strokeColor=inherit;" parent="ft2vWSQbbDp8k2CjRcFA-30" vertex="1">
                    <mxGeometry y="60" width="392.48" height="14.925373134328357" as="geometry"/>
                </mxCell>
                <mxCell id="ft2vWSQbbDp8k2CjRcFA-33" value="&lt;div&gt;+ getLaCompetence(): Competence&lt;/div&gt;&lt;div&gt;+ setLaCompetence(uneCompetence: Competence): void&lt;/div&gt;&lt;div&gt;+ getIntituleCompetence(): String&lt;/div&gt;&lt;div&gt;+ setIntituleCompetence(unIntituleCompetence: String): void&lt;/div&gt;&lt;div&gt;+ getCompetenceNecessaire(): Competence&lt;/div&gt;&lt;div&gt;+ setCompetenceNecessaire(uneCompetence: Competence): void&lt;/div&gt;&lt;div&gt;+ getIntituleCompetenceNecessaire(): String&lt;/div&gt;&lt;div&gt;+ setIntituleCompetenceNecessaire(unIntituleCompetence: String): void&lt;/div&gt;&lt;div&gt;+ toString(): String&lt;/div&gt;&lt;div&gt;+ concerneCompetence(intitule: String): boolean&lt;/div&gt;" style="text;strokeColor=none;fillColor=none;align=left;verticalAlign=top;spacingLeft=4;spacingRight=4;overflow=hidden;rotatable=0;points=[[0,0.5],[1,0.5]];portConstraint=eastwest;whiteSpace=wrap;html=1;" parent="ft2vWSQbbDp8k2CjRcFA-30" vertex="1">
                    <mxGeometry y="74.92537313432835" width="392.48" height="155.07" as="geometry"/>
                </mxCell>
                <mxCell id="ft2vWSQbbDp8k2CjRcFA-34" value="+ Journee" style="swimlane;fontStyle=1;align=center;verticalAlign=top;childLayout=stackLayout;horizontal=1;startSize=26;horizontalStack=0;resizeParent=1;resizeParentMax=0;resizeLast=0;collapsible=1;marginBottom=0;whiteSpace=wrap;html=1;" parent="ft2vWSQbbDp8k2CjRcFA-13" vertex="1">
                    <mxGeometry x="339.9990324666925" y="1415.996536312849" width="274.74" height="249.99537313432836" as="geometry">
                        <mxRectangle x="240" y="1349.1791044776119" width="100" height="40.07462686567164" as="alternateBounds"/>
                    </mxGeometry>
                </mxCell>
                <mxCell id="ft2vWSQbbDp8k2CjRcFA-35" value="&lt;div&gt;- jour: int&lt;/div&gt;&lt;div&gt;- mois: int&lt;/div&gt;&lt;div&gt;- annee: int&lt;/div&gt;" style="text;strokeColor=none;fillColor=none;align=left;verticalAlign=top;spacingLeft=4;spacingRight=4;overflow=hidden;rotatable=0;points=[[0,0.5],[1,0.5]];portConstraint=eastwest;whiteSpace=wrap;html=1;" parent="ft2vWSQbbDp8k2CjRcFA-34" vertex="1">
                    <mxGeometry y="26" width="274.74" height="54" as="geometry"/>
                </mxCell>
                <mxCell id="ft2vWSQbbDp8k2CjRcFA-36" value="" style="line;strokeWidth=1;fillColor=none;align=left;verticalAlign=middle;spacingTop=-1;spacingLeft=3;spacingRight=3;rotatable=0;labelPosition=right;points=[];portConstraint=eastwest;strokeColor=inherit;" parent="ft2vWSQbbDp8k2CjRcFA-34" vertex="1">
                    <mxGeometry y="80" width="274.74" height="14.925373134328357" as="geometry"/>
                </mxCell>
                <mxCell id="ft2vWSQbbDp8k2CjRcFA-37" value="&lt;div&gt;+ Journee(unJour: int, unMois: int, uneAnnee: int)&lt;/div&gt;&lt;div&gt;+ Journee()&lt;/div&gt;+ getJour(): int&lt;div&gt;+ setJour(unJour: int): void&lt;/div&gt;&lt;div&gt;+ getMois(): int&lt;/div&gt;&lt;div&gt;+ setMois(unMois: int): void&lt;/div&gt;&lt;div&gt;+ getAnnee(): int&lt;/div&gt;&lt;div&gt;+ setAnnee(uneAnnee: int): void&lt;/div&gt;&lt;div&gt;+ toString(): String&lt;/div&gt;&lt;div&gt;+ estEgale(autre: Journee): boolean&lt;/div&gt;" style="text;strokeColor=none;fillColor=none;align=left;verticalAlign=top;spacingLeft=4;spacingRight=4;overflow=hidden;rotatable=0;points=[[0,0.5],[1,0.5]];portConstraint=eastwest;whiteSpace=wrap;html=1;" parent="ft2vWSQbbDp8k2CjRcFA-34" vertex="1">
                    <mxGeometry y="94.92537313432835" width="274.74" height="155.07" as="geometry"/>
                </mxCell>
                <mxCell id="ft2vWSQbbDp8k2CjRcFA-38" style="rounded=0;orthogonalLoop=1;jettySize=auto;html=1;entryX=1;entryY=0.5;entryDx=0;entryDy=0;exitX=0;exitY=0.5;exitDx=0;exitDy=0;" parent="ft2vWSQbbDp8k2CjRcFA-13" source="WQMvDcrjrdcJwykN7Dnw-19" target="ft2vWSQbbDp8k2CjRcFA-22" edge="1">
                    <mxGeometry relative="1" as="geometry"/>
                </mxCell>
                <mxCell id="WQMvDcrjrdcJwykN7Dnw-18" value="+ EstAffecteA" style="swimlane;fontStyle=1;align=center;verticalAlign=top;childLayout=stackLayout;horizontal=1;startSize=26;horizontalStack=0;resizeParent=1;resizeParentMax=0;resizeLast=0;collapsible=1;marginBottom=0;whiteSpace=wrap;html=1;" parent="ft2vWSQbbDp8k2CjRcFA-13" vertex="1">
                    <mxGeometry x="948.4063595542988" y="794.13" width="320" height="309.99537313432836" as="geometry">
                        <mxRectangle x="590" y="519.9905970149254" width="100" height="40.07462686567164" as="alternateBounds"/>
                    </mxGeometry>
                </mxCell>
                <mxCell id="WQMvDcrjrdcJwykN7Dnw-19" value="&lt;div&gt;- idSecouriste: long&lt;/div&gt;&lt;div&gt;&lt;span style=&quot;background-color: transparent;&quot;&gt;- intituleCompetence: String&lt;/span&gt;&lt;/div&gt;&lt;div&gt;&lt;span style=&quot;background-color: transparent;&quot;&gt;- idDPS: long&lt;/span&gt;&lt;/div&gt;" style="text;strokeColor=none;fillColor=none;align=left;verticalAlign=top;spacingLeft=4;spacingRight=4;overflow=hidden;rotatable=0;points=[[0,0.5],[1,0.5]];portConstraint=eastwest;whiteSpace=wrap;html=1;" parent="WQMvDcrjrdcJwykN7Dnw-18" vertex="1">
                    <mxGeometry y="26" width="320" height="54" as="geometry"/>
                </mxCell>
                <mxCell id="WQMvDcrjrdcJwykN7Dnw-20" value="" style="line;strokeWidth=1;fillColor=none;align=left;verticalAlign=middle;spacingTop=-1;spacingLeft=3;spacingRight=3;rotatable=0;labelPosition=right;points=[];portConstraint=eastwest;strokeColor=inherit;" parent="WQMvDcrjrdcJwykN7Dnw-18" vertex="1">
                    <mxGeometry y="80" width="320" height="14.925373134328357" as="geometry"/>
                </mxCell>
                <mxCell id="WQMvDcrjrdcJwykN7Dnw-21" value="&lt;div&gt;&lt;div&gt;+ getSecouriste(): Secouriste&lt;/div&gt;&lt;/div&gt;&lt;div&gt;+ setSecouriste(unSecouriste: Secouriste): void&lt;/div&gt;&lt;div&gt;+ getIdSecouriste(): long&lt;/div&gt;&lt;div&gt;+ setIdSecouriste(unIdSecouriste: int): void&lt;/div&gt;&lt;div&gt;+ getLaCompetence(): Competence&lt;/div&gt;&lt;div&gt;+ setLaCompetence(uneCompetence: Competence): void&lt;/div&gt;&lt;div&gt;+ getIntituleCompetence(): String&lt;/div&gt;&lt;div&gt;+ setIntituleCompetence(unIntitule: String): void&lt;/div&gt;&lt;div&gt;+ getLeDPS(): DPS&lt;/div&gt;&lt;div&gt;+ setLeDPS(unDPS: DPS): void&lt;/div&gt;&lt;div&gt;+ getIdDPS(): long&lt;/div&gt;&lt;div&gt;+ setIdDPS(unIdDPS: long): void&lt;/div&gt;&lt;div&gt;+ toString(): String&lt;/div&gt;&lt;div&gt;+ concerneSecouriste(idSecouriste: long): boolean&lt;/div&gt;" style="text;strokeColor=none;fillColor=none;align=left;verticalAlign=top;spacingLeft=4;spacingRight=4;overflow=hidden;rotatable=0;points=[[0,0.5],[1,0.5]];portConstraint=eastwest;whiteSpace=wrap;html=1;" parent="WQMvDcrjrdcJwykN7Dnw-18" vertex="1">
                    <mxGeometry y="94.92537313432835" width="320" height="215.07" as="geometry"/>
                </mxCell>
                <mxCell id="Akj_Q5KGUya6kEIMWcKO-2" style="rounded=0;orthogonalLoop=1;jettySize=auto;html=1;exitX=0.5;exitY=1;exitDx=0;exitDy=0;" parent="ft2vWSQbbDp8k2CjRcFA-13" source="WQMvDcrjrdcJwykN7Dnw-22" target="ft2vWSQbbDp8k2CjRcFA-34" edge="1">
                    <mxGeometry relative="1" as="geometry"/>
                </mxCell>
                <mxCell id="WQMvDcrjrdcJwykN7Dnw-22" value="+ EstDisponible" style="swimlane;fontStyle=1;align=center;verticalAlign=top;childLayout=stackLayout;horizontal=1;startSize=26;horizontalStack=0;resizeParent=1;resizeParentMax=0;resizeLast=0;collapsible=1;marginBottom=0;whiteSpace=wrap;html=1;" parent="ft2vWSQbbDp8k2CjRcFA-13" vertex="1">
                    <mxGeometry x="179.9996003104385" y="899.9971691820228" width="560" height="369.99537313432836" as="geometry">
                        <mxRectangle x="60" y="520" width="100" height="30" as="alternateBounds"/>
                    </mxGeometry>
                </mxCell>
                <mxCell id="WQMvDcrjrdcJwykN7Dnw-23" value="&lt;div&gt;- idSecouriste: long&lt;/div&gt;&lt;div&gt;- laJournee: Journee&lt;/div&gt;&lt;div&gt;- jourJournee: int&lt;/div&gt;&lt;div&gt;- moisJournee: int&lt;/div&gt;&lt;div&gt;- anneeJournee: int&lt;/div&gt;" style="text;strokeColor=none;fillColor=none;align=left;verticalAlign=top;spacingLeft=4;spacingRight=4;overflow=hidden;rotatable=0;points=[[0,0.5],[1,0.5]];portConstraint=eastwest;whiteSpace=wrap;html=1;" parent="WQMvDcrjrdcJwykN7Dnw-22" vertex="1">
                    <mxGeometry y="26" width="560" height="84" as="geometry"/>
                </mxCell>
                <mxCell id="WQMvDcrjrdcJwykN7Dnw-24" value="" style="line;strokeWidth=1;fillColor=none;align=left;verticalAlign=middle;spacingTop=-1;spacingLeft=3;spacingRight=3;rotatable=0;labelPosition=right;points=[];portConstraint=eastwest;strokeColor=inherit;" parent="WQMvDcrjrdcJwykN7Dnw-22" vertex="1">
                    <mxGeometry y="110" width="560" height="14.925373134328357" as="geometry"/>
                </mxCell>
                <mxCell id="WQMvDcrjrdcJwykN7Dnw-25" value="&lt;div&gt;&lt;div&gt;+ EstDisponible()&lt;/div&gt;&lt;div&gt;+ EstDisponible(unSecouriste: Secouriste, uneJournee: Journee, unJour: int, unMois: int, uneAnnee:int)&lt;/div&gt;&lt;div&gt;+ getSecouriste(): Secouriste&lt;/div&gt;&lt;/div&gt;&lt;div&gt;+ setSecouriste(unSecouriste: Secouriste): void&lt;/div&gt;&lt;div&gt;+ getIdSecouriste(): long&lt;/div&gt;&lt;div&gt;+ setIdSecouriste(unIdSecouriste: int): void&lt;/div&gt;&lt;div&gt;+ getLaJournee(): Journee&lt;/div&gt;&lt;div&gt;+ setLaJournee(uneJournee: Journee): void&lt;/div&gt;&lt;div&gt;+ getJourJournee(): int&lt;/div&gt;&lt;div&gt;+ setJourJournee(unJourJournee: int): void&lt;/div&gt;&lt;div&gt;+&amp;nbsp;&lt;span style=&quot;background-color: transparent; color: light-dark(rgb(0, 0, 0), rgb(255, 255, 255));&quot;&gt;getMoisJournee(): int&lt;/span&gt;&lt;/div&gt;&lt;div&gt;+ s&lt;span style=&quot;background-color: transparent; color: light-dark(rgb(0, 0, 0), rgb(255, 255, 255));&quot;&gt;etMoisJournee(unMoisJournee: int): void&lt;/span&gt;&lt;/div&gt;&lt;div&gt;&lt;span style=&quot;background-color: transparent; color: light-dark(rgb(0, 0, 0), rgb(255, 255, 255));&quot;&gt;+ getAnneeJournee(): int&lt;/span&gt;&lt;/div&gt;&lt;div&gt;&lt;span style=&quot;background-color: transparent; color: light-dark(rgb(0, 0, 0), rgb(255, 255, 255));&quot;&gt;+ setAnneeJournee(uneAnneeJournee: int): void&lt;/span&gt;&lt;/div&gt;&lt;div&gt;&lt;span style=&quot;background-color: transparent; color: light-dark(rgb(0, 0, 0), rgb(255, 255, 255));&quot;&gt;+ toString(): String&lt;/span&gt;&lt;/div&gt;&lt;div&gt;&lt;span style=&quot;background-color: transparent; color: light-dark(rgb(0, 0, 0), rgb(255, 255, 255));&quot;&gt;+ estDisponibleLe(jour: int, mois: int, annee: int): boolean&lt;/span&gt;&lt;/div&gt;" style="text;strokeColor=none;fillColor=none;align=left;verticalAlign=top;spacingLeft=4;spacingRight=4;overflow=hidden;rotatable=0;points=[[0,0.5],[1,0.5]];portConstraint=eastwest;whiteSpace=wrap;html=1;" parent="WQMvDcrjrdcJwykN7Dnw-22" vertex="1">
                    <mxGeometry y="124.92537313432835" width="560" height="245.07" as="geometry"/>
                </mxCell>
                <mxCell id="ft2vWSQbbDp8k2CjRcFA-39" style="rounded=0;orthogonalLoop=1;jettySize=auto;html=1;entryX=0;entryY=1;entryDx=0;entryDy=0;exitX=1;exitY=0.25;exitDx=0;exitDy=0;" parent="ft2vWSQbbDp8k2CjRcFA-13" source="WQMvDcrjrdcJwykN7Dnw-18" target="WQMvDcrjrdcJwykN7Dnw-10" edge="1">
                    <mxGeometry relative="1" as="geometry">
                        <mxPoint x="2371.523735609882" y="466.4179104477612" as="targetPoint"/>
                    </mxGeometry>
                </mxCell>
                <mxCell id="ft2vWSQbbDp8k2CjRcFA-40" style="rounded=0;orthogonalLoop=1;jettySize=auto;html=1;entryX=0.25;entryY=0;entryDx=0;entryDy=0;exitX=1;exitY=0.5;exitDx=0;exitDy=0;" parent="ft2vWSQbbDp8k2CjRcFA-13" source="WQMvDcrjrdcJwykN7Dnw-21" target="WQMvDcrjrdcJwykN7Dnw-14" edge="1">
                    <mxGeometry relative="1" as="geometry"/>
                </mxCell>
                <mxCell id="ft2vWSQbbDp8k2CjRcFA-41" style="rounded=0;orthogonalLoop=1;jettySize=auto;html=1;entryX=0.138;entryY=0.029;entryDx=0;entryDy=0;exitX=0.097;exitY=1.008;exitDx=0;exitDy=0;exitPerimeter=0;entryPerimeter=0;" parent="ft2vWSQbbDp8k2CjRcFA-13" source="ft2vWSQbbDp8k2CjRcFA-33" target="WQMvDcrjrdcJwykN7Dnw-10" edge="1">
                    <mxGeometry relative="1" as="geometry"/>
                </mxCell>
                <mxCell id="ft2vWSQbbDp8k2CjRcFA-42" style="rounded=0;orthogonalLoop=1;jettySize=auto;html=1;exitX=0.811;exitY=1.028;exitDx=0;exitDy=0;exitPerimeter=0;" parent="ft2vWSQbbDp8k2CjRcFA-13" source="ft2vWSQbbDp8k2CjRcFA-33" target="WQMvDcrjrdcJwykN7Dnw-10" edge="1">
                    <mxGeometry relative="1" as="geometry"/>
                </mxCell>
                <mxCell id="Akj_Q5KGUya6kEIMWcKO-1" style="rounded=0;orthogonalLoop=1;jettySize=auto;html=1;exitX=0.5;exitY=0;exitDx=0;exitDy=0;entryX=0.478;entryY=0.997;entryDx=0;entryDy=0;entryPerimeter=0;" parent="ft2vWSQbbDp8k2CjRcFA-13" source="WQMvDcrjrdcJwykN7Dnw-22" target="ft2vWSQbbDp8k2CjRcFA-25" edge="1">
                    <mxGeometry relative="1" as="geometry"/>
                </mxCell>
                <mxCell id="Akj_Q5KGUya6kEIMWcKO-4" style="rounded=0;orthogonalLoop=1;jettySize=auto;html=1;exitX=0;exitY=0.5;exitDx=0;exitDy=0;entryX=1;entryY=0.5;entryDx=0;entryDy=0;" parent="ft2vWSQbbDp8k2CjRcFA-13" source="ft2vWSQbbDp8k2CjRcFA-27" target="ft2vWSQbbDp8k2CjRcFA-23" edge="1">
                    <mxGeometry relative="1" as="geometry"/>
                </mxCell>
                <mxCell id="Akj_Q5KGUya6kEIMWcKO-5" style="rounded=0;orthogonalLoop=1;jettySize=auto;html=1;exitX=1;exitY=0.5;exitDx=0;exitDy=0;entryX=0;entryY=0.5;entryDx=0;entryDy=0;" parent="ft2vWSQbbDp8k2CjRcFA-13" source="ft2vWSQbbDp8k2CjRcFA-27" target="WQMvDcrjrdcJwykN7Dnw-11" edge="1">
                    <mxGeometry relative="1" as="geometry"/>
                </mxCell>
                <mxCell id="Akj_Q5KGUya6kEIMWcKO-6" style="rounded=0;orthogonalLoop=1;jettySize=auto;html=1;exitX=0.5;exitY=0;exitDx=0;exitDy=0;entryX=0.5;entryY=1.06;entryDx=0;entryDy=0;entryPerimeter=0;" parent="ft2vWSQbbDp8k2CjRcFA-13" source="WQMvDcrjrdcJwykN7Dnw-6" target="WQMvDcrjrdcJwykN7Dnw-13" edge="1">
                    <mxGeometry relative="1" as="geometry"/>
                </mxCell>
                <mxCell id="Akj_Q5KGUya6kEIMWcKO-9" style="rounded=0;orthogonalLoop=1;jettySize=auto;html=1;entryX=0.007;entryY=0.016;entryDx=0;entryDy=0;entryPerimeter=0;" parent="ft2vWSQbbDp8k2CjRcFA-13" source="WQMvDcrjrdcJwykN7Dnw-14" target="ft2vWSQbbDp8k2CjRcFA-17" edge="1">
                    <mxGeometry relative="1" as="geometry"/>
                </mxCell>
                <mxCell id="Akj_Q5KGUya6kEIMWcKO-11" value="- leSecouriste" style="text;html=1;align=center;verticalAlign=middle;whiteSpace=wrap;rounded=0;" parent="ft2vWSQbbDp8k2CjRcFA-13" vertex="1">
                    <mxGeometry x="450.00126226509224" y="800" width="78.28072509562612" height="30" as="geometry"/>
                </mxCell>
                <mxCell id="Akj_Q5KGUya6kEIMWcKO-12" value="- laJournee" style="text;html=1;align=center;verticalAlign=middle;whiteSpace=wrap;rounded=0;" parent="ft2vWSQbbDp8k2CjRcFA-13" vertex="1">
                    <mxGeometry x="388.3191352070514" y="1374.5" width="68.90038250457341" height="30" as="geometry"/>
                </mxCell>
                <mxCell id="0" value="- estProgramme" style="text;html=1;align=center;verticalAlign=middle;whiteSpace=wrap;rounded=0;" parent="ft2vWSQbbDp8k2CjRcFA-13" vertex="1">
                    <mxGeometry x="624.54" y="1436" width="102.38" height="30" as="geometry"/>
                </mxCell>
                <mxCell id="1" value="- aLieuDans" style="text;html=1;align=center;verticalAlign=middle;whiteSpace=wrap;rounded=0;" parent="ft2vWSQbbDp8k2CjRcFA-13" vertex="1">
                    <mxGeometry x="1636.923643771827" y="1681.87" width="68.90038250457341" height="30" as="geometry"/>
                </mxCell>
                <mxCell id="2" value="- concerne" style="text;html=1;align=center;verticalAlign=middle;whiteSpace=wrap;rounded=0;" parent="ft2vWSQbbDp8k2CjRcFA-13" vertex="1">
                    <mxGeometry x="2017.9268235489762" y="1407.87" width="68.90038250457341" height="30" as="geometry"/>
                </mxCell>
                <mxCell id="3" value="- leSecouriste" style="text;html=1;align=center;verticalAlign=middle;whiteSpace=wrap;rounded=0;" parent="ft2vWSQbbDp8k2CjRcFA-13" vertex="1">
                    <mxGeometry x="870.1284067852984" y="374.13000000000005" width="78.28072509562612" height="30" as="geometry"/>
                </mxCell>
                <mxCell id="4" value="- leSecouriste" style="text;html=1;align=center;verticalAlign=middle;whiteSpace=wrap;rounded=0;" parent="ft2vWSQbbDp8k2CjRcFA-13" vertex="1">
                    <mxGeometry x="880.0044437053051" y="590" width="78.28072509562612" height="30" as="geometry"/>
                </mxCell>
                <mxCell id="5" value="- laCompetence" style="text;html=1;align=center;verticalAlign=middle;whiteSpace=wrap;rounded=0;" parent="ft2vWSQbbDp8k2CjRcFA-13" vertex="1">
                    <mxGeometry x="1607.4033460834855" y="419.13" width="98.12073840013304" height="30" as="geometry"/>
                </mxCell>
                <mxCell id="6" value="- laCompetence" style="text;html=1;align=center;verticalAlign=middle;whiteSpace=wrap;rounded=0;" parent="ft2vWSQbbDp8k2CjRcFA-13" vertex="1">
                    <mxGeometry x="1634.1095809080325" y="350" width="98.12073840013304" height="30" as="geometry"/>
                </mxCell>
                <mxCell id="7" value="- laCompetence" style="text;html=1;align=center;verticalAlign=middle;whiteSpace=wrap;rounded=0;" parent="ft2vWSQbbDp8k2CjRcFA-13" vertex="1">
                    <mxGeometry x="1617.4312855479786" y="539.1300000000001" width="98.12073840013304" height="30" as="geometry"/>
                </mxCell>
                <mxCell id="8" value="- laCompetence" style="text;html=1;align=center;verticalAlign=middle;whiteSpace=wrap;rounded=0;" parent="ft2vWSQbbDp8k2CjRcFA-13" vertex="1">
                    <mxGeometry x="1849.9989838682848" y="569.1300000000001" width="98.12073840013304" height="30" as="geometry"/>
                </mxCell>
                <mxCell id="9" value="- competenceNecessaire" style="text;html=1;align=center;verticalAlign=middle;whiteSpace=wrap;rounded=0;" parent="ft2vWSQbbDp8k2CjRcFA-13" vertex="1">
                    <mxGeometry x="1920.003500748378" y="374.13" width="137.15316813570595" height="30" as="geometry"/>
                </mxCell>
                <mxCell id="10" value="- leDPS" style="text;html=1;align=center;verticalAlign=middle;whiteSpace=wrap;rounded=0;" parent="ft2vWSQbbDp8k2CjRcFA-13" vertex="1">
                    <mxGeometry x="1366.9233460834857" y="1250" width="98.12073840013304" height="30" as="geometry"/>
                </mxCell>
                <mxCell id="11" value="- leDPS" style="text;html=1;align=center;verticalAlign=middle;whiteSpace=wrap;rounded=0;" parent="ft2vWSQbbDp8k2CjRcFA-13" vertex="1">
                    <mxGeometry x="1682.473969732246" y="1261.87" width="98.12073840013304" height="30" as="geometry"/>
                </mxCell>
                <mxCell id="ft2vWSQbbDp8k2CjRcFA-12" value="persistence" style="text;html=1;align=center;verticalAlign=middle;whiteSpace=wrap;rounded=0;" parent="ft2vWSQbbDp8k2CjRcFA-13" vertex="1">
                    <mxGeometry x="0.0021804608533436023" y="-10.002383890602857" width="115.78247131215697" height="21.1" as="geometry"/>
                </mxCell>
            </root>
        </mxGraphModel>
    </diagram>
</mxfile>